# xmcd
#
# Track frame offsets: 
#        150
#        14247
#        19442
#        30338
#        43524
#        53567
#        68365
#        87551
#        96680
#        113216
#        129491
#
# Disc length: 1880 seconds
#
# Revision: 0
# Processed by: cddbd v1.5.2PL0 Copyright (c) Steve Scherf et al.
# Submitted via: ExactAudioCopyFreeDBPlugin 1.0
#
DISCID=9207560b
DTITLE=Brendan MacFarlane - The Road
DYEAR=2011
DGENRE=Country
TTITLE0=Footprints
TTITLE1=Get To Heaven
TTITLE2=Gonna Know
TTITLE3=Looking For Jesus
TTITLE4=Take My Soul
TTITLE5=Soulja
TTITLE6=Money Won't
TTITLE7=Where Were You
TTITLE8=Tonight
TTITLE9=Wont You Believe
TTITLE10=The Road
EXTD=
EXTT0=
EXTT1=
EXTT2=
EXTT3=
EXTT4=
EXTT5=
EXTT6=
EXTT7=
EXTT8=
EXTT9=
EXTT10=
PLAYORDER=
